<?xml version="1.0" encoding="utf-8"?>
<!-- Generator: Adobe Illustrator 20.1.0, SVG Export Plug-In . SVG Version: 6.00 Build 0)  -->
<svg version="1.1" id="Layer_1" xmlns="http://www.w3.org/2000/svg" xmlns:xlink="http://www.w3.org/1999/xlink" x="0px" y="0px"
	 viewBox="0 0 38 30" style="enable-background:new 0 0 38 30;" xml:space="preserve">
<style type="text/css">
	.st0{opacity:0.3;}
	.st1{fill:none;}
	.st2{fill:#333132;}
</style>
<title>Cake_Icon</title>
<g class="st0">
	<path class="st1" d="M1.5,18.2v5.3c0,0,0,0,0.1,0c0,0,0,0,0,0L1.5,18.2C1.5,18.2,1.5,18.2,1.5,18.2z"/>
	<path class="st1" d="M36.5,28.6L36.5,28.6l0.1-3.7c0,0,0,0-0.1,0V28.6z"/>
	<path class="st1" d="M27.1,4l-1.8,0.6c0,0.2,0,0.3,0,0.5c0,2.8-2.3,5.1-5.1,5.1c-1.8,0-3.4-0.9-4.3-2.4L5,11.7h30.4L27.1,4z"/>
	<path class="st1" d="M20.1,8.8c2,0,3.7-1.7,3.7-3.7c0-2-1.7-3.7-3.7-3.7c-2,0-3.7,1.7-3.7,3.7C16.4,7.2,18.1,8.8,20.1,8.8z
		 M19.6,3.2c0.1-0.4,0.5-0.6,0.9-0.5c1,0.3,1.8,1.1,2.1,2.2c0.1,0.4-0.1,0.8-0.5,0.9c0,0,0,0,0,0l-0.2,0c-0.3,0-0.6-0.2-0.7-0.5
		c-0.1-0.6-0.5-1-1.1-1.2C19.7,4,19.5,3.6,19.6,3.2z"/>
	<path class="st1" d="M1.5,24.9v3.7h0.1L1.5,24.9C1.5,24.9,1.5,24.9,1.5,24.9z"/>
	<path class="st1" d="M36.5,23.5C36.5,23.5,36.5,23.5,36.5,23.5l0.1-5.3c0,0,0,0-0.1,0V23.5z"/>
	<path class="st1" d="M1.5,13.1v3.7c0,0,0,0,0.1,0L1.5,13.1L1.5,13.1z"/>
	<path class="st1" d="M36.5,16.8C36.5,16.8,36.5,16.8,36.5,16.8l0.1-3.7h-0.1V16.8z"/>
	<path class="st2" d="M38,12.3c0-0.1,0-0.1,0-0.2c0-0.1-0.1-0.1-0.1-0.2c0,0,0,0,0,0l-0.1-0.1l-9.9-9c-0.1-0.1-0.3-0.2-0.5-0.2h-0.1
		H27l-2.1,0.7C24.1,1.4,22.3,0,20.1,0C17.3,0,15,2.3,15,5.1c0,0.5,0.1,1,0.2,1.5L0.5,11.7l0,0c0,0,0,0,0,0C0.2,11.8,0,12.1,0,12.4
		v16.9C0,29.7,0.3,30,0.7,30h36.5c0.4,0,0.7-0.3,0.7-0.7V12.4C38,12.3,38,12.3,38,12.3z M20.1,1.4c2,0,3.7,1.7,3.7,3.7
		c0,2-1.7,3.7-3.7,3.7s-3.7-1.7-3.7-3.7C16.4,3.1,18.1,1.4,20.1,1.4z M15.8,7.9c0.9,1.4,2.5,2.4,4.3,2.4c2.8,0,5.1-2.3,5.1-5.1
		c0-0.2,0-0.3,0-0.5L27.1,4l8.3,7.6H5L15.8,7.9z M36.5,28.6L36.5,28.6h-35H1.5v-3.7c0,0,0,0,0.1,0h34.9c0,0,0,0,0.1,0V28.6z
		 M36.5,23.5C36.5,23.5,36.5,23.5,36.5,23.5l-35,0c0,0,0,0,0,0c0,0,0,0-0.1,0v-5.3c0,0,0,0,0.1,0h34.9c0,0,0,0,0.1,0V23.5z
		 M36.5,16.8C36.5,16.8,36.5,16.8,36.5,16.8l-35,0c0,0,0,0-0.1,0v-3.7h0.1h34.9h0.1V16.8z"/>
	<path class="st2" d="M20.1,4.1c0.5,0.2,1,0.6,1.1,1.2c0.1,0.3,0.4,0.5,0.7,0.5l0.2,0c0,0,0,0,0,0c0.4-0.1,0.6-0.5,0.5-0.9
		c-0.2-1-1-1.9-2.1-2.2c-0.4-0.1-0.8,0.1-0.9,0.5C19.5,3.6,19.7,4,20.1,4.1z"/>
	
		<ellipse transform="matrix(4.023448e-02 -0.9992 0.9992 4.023448e-02 12.8011 52.5769)" class="st2" cx="33.8" cy="19.6" rx="0.7" ry="0.7"/>
	
		<ellipse transform="matrix(4.662080e-02 -0.9989 0.9989 4.662080e-02 2.2142 42.5799)" class="st2" cx="23.4" cy="20.1" rx="0.8" ry="0.8"/>
	<path class="st2" d="M11,19.4c-1-0.3-1.4,1.5-0.2,1.5c0.3,0,0.6-0.2,0.7-0.5C11.6,20,11.4,19.6,11,19.4z"/>
	<path class="st2" d="M4.5,19.6c-1-0.3-1.4,1.4-0.3,1.4c0.3,0,0.5-0.2,0.7-0.5C5.1,20.2,4.9,19.7,4.5,19.6z"/>
	<path class="st2" d="M19.2,20c-0.3,0.1-0.6,0.4-0.6,0.7c0,0.4,0.3,0.8,0.7,0.8c0.4,0,0.7-0.4,0.7-0.8S19.6,19.9,19.2,20z"/>
	<path class="st2" d="M15.1,20.4c-1-0.3-1.4,1.5-0.2,1.5c0.3,0,0.6-0.2,0.7-0.5C15.7,21,15.5,20.6,15.1,20.4z"/>
	
		<ellipse transform="matrix(4.662080e-02 -0.9989 0.9989 4.662080e-02 2.4183 45.9737)" class="st2" cx="25.3" cy="21.7" rx="0.8" ry="0.8"/>
	<path class="st2" d="M8,21.4c-1-0.3-1.3,1.5-0.2,1.5c0.3,0,0.6-0.2,0.7-0.5C8.6,22,8.4,21.5,8,21.4z"/>
	
		<ellipse transform="matrix(4.662080e-02 -0.9989 0.9989 4.662080e-02 7.4827 49.1)" class="st2" cx="29.5" cy="20.6" rx="0.8" ry="0.8"/>
</g>
</svg>
