<?xml version="1.0" encoding="utf-8"?>
<!-- Generator: Adobe Illustrator 20.1.0, SVG Export Plug-In . SVG Version: 6.00 Build 0)  -->
<svg version="1.1" id="Layer_1" xmlns="http://www.w3.org/2000/svg" xmlns:xlink="http://www.w3.org/1999/xlink" x="0px" y="0px"
	 viewBox="0 0 28 24" style="enable-background:new 0 0 28 24;" xml:space="preserve">
<style type="text/css">
	.st0{opacity:0.3;}
	.st1{fill:#333132;}
</style>
<title>hamburger</title>
<desc>Created with Sketch.</desc>
<g id="Page-1" class="st0">
	<g id="_x33_20-Food-Calc_x2C_-pg3-Refine-Results" transform="translate(-179.000000, -198.000000)">
		<g id="Icons" transform="translate(72.000000, 197.000000)">
			<path id="hamburger" class="st1" d="M131.8,25h-21.2c-0.2,0-0.4,0-0.5-0.2l-2.4-4.3c-0.1-0.2-0.1-0.3,0-0.4s0.3-0.1,0.5-0.1h26
				c0.2,0,0.4,0,0.5,0.2s0.1,0.3,0,0.5l-2.4,4.2C132.1,25,132,25,131.8,25z M111,24h20.5l1.7-3h-24L111,24z M134.2,19h-26
				c-0.3,0-0.5-0.2-0.5-0.5s0.2-0.5,0.5-0.5h26c0.3,0,0.5,0.2,0.5,0.5S134.5,19,134.2,19z M134.2,13h-26c-0.2,0-0.3-0.1-0.4-0.3
				c-0.1-0.1-0.2-0.3-0.1-0.5C108.4,4.5,115.2,1,121.2,1s12.8,3.5,13.5,11.3c0,0.2,0,0.4-0.1,0.5C134.5,12.9,134.3,13,134.2,13z
				 M108.8,12h24.6c-0.9-7-6.8-9.7-12.4-9.7C115.7,2.3,109.8,5,108.8,12z M134.5,16.5c-1.6,0-2.1-0.4-2.7-0.9
				c-0.3-0.3-0.5-0.6-1.8-0.6c-1.2,0-1.5,0.3-1.8,0.6c-0.5,0.5-1,0.9-2.7,0.9s-2.1-0.4-2.7-0.9c-0.3-0.3-0.5-0.6-1.8-0.6
				c-1.2,0-1.5,0.3-1.8,0.6c-0.5,0.5-1,0.9-2.7,0.9s-2.1-0.4-2.7-0.9c-0.3-0.3-0.5-0.6-1.8-0.6c-1.2,0-1.5,0.3-1.8,0.6
				c-0.5,0.5-1,0.9-2.7,0.9c-0.3,0-0.5-0.2-0.5-0.6c0-0.3,0.2-0.6,0.5-0.6c1.2,0,1.5-0.3,1.8-0.6c0.5-0.5,1-0.9,2.7-0.9
				c1.6,0,2.1,0.4,2.7,0.9c0.3,0.3,0.5,0.6,1.8,0.6c1.2,0,1.5-0.3,1.8-0.6c0.5-0.5,1-0.9,2.7-0.9c1.6,0,2.1,0.4,2.7,0.9
				c0.3,0.3,0.5,0.6,1.8,0.6c1.2,0,1.5-0.3,1.8-0.6c0.5-0.5,1-0.9,2.7-0.9c1.6,0,2.1,0.4,2.7,0.9c0.3,0.3,0.5,0.6,1.8,0.6
				c0.3,0,0.5,0.2,0.5,0.6C135,16.3,134.8,16.5,134.5,16.5z M124.5,8.3C124.4,8.3,124.4,8.3,124.5,8.3
				C124.4,8.3,124.4,8.3,124.5,8.3c-0.4-0.1-0.6-0.3-0.6-0.6c0.1-0.3,0.3-0.5,0.6-0.5h0.1c0.3,0.1,0.5,0.3,0.4,0.6
				C125,8.1,124.7,8.3,124.5,8.3z M127.1,9.6L127.1,9.6C127,9.6,127,9.6,127.1,9.6c-0.4-0.1-0.6-0.3-0.6-0.6
				c0.1-0.3,0.3-0.5,0.6-0.5h0.1c0.3,0.1,0.5,0.3,0.4,0.6C127.6,9.4,127.4,9.6,127.1,9.6z M124.5,5.2C124.4,5.2,124.4,5.2,124.5,5.2
				C124.4,5.2,124.4,5.2,124.5,5.2c-0.4-0.1-0.6-0.3-0.6-0.6c0.1-0.3,0.3-0.5,0.6-0.5h0.1c0.3,0.1,0.5,0.3,0.4,0.6
				C125,5,124.7,5.2,124.5,5.2z M130.2,9.6L130.2,9.6c-0.1,0-0.1,0-0.1,0c-0.3-0.1-0.5-0.3-0.5-0.6c0.1-0.3,0.3-0.5,0.6-0.5h0.1
				c0.3,0.1,0.5,0.3,0.4,0.6C130.7,9.4,130.5,9.6,130.2,9.6z M127.4,6.8L127.4,6.8C127.3,6.8,127.3,6.8,127.4,6.8
				c-0.4-0.1-0.6-0.3-0.6-0.6c0.1-0.3,0.3-0.5,0.6-0.5h0.1c0.3,0.1,0.5,0.3,0.4,0.6C127.9,6.6,127.7,6.8,127.4,6.8z"/>
		</g>
	</g>
</g>
</svg>
