<?xml version="1.0" encoding="utf-8"?>
<!-- Generator: Adobe Illustrator 20.1.0, SVG Export Plug-In . SVG Version: 6.00 Build 0)  -->
<svg version="1.1" id="Layer_2" xmlns="http://www.w3.org/2000/svg" xmlns:xlink="http://www.w3.org/1999/xlink" x="0px" y="0px"
	 viewBox="0 0 38 38" style="enable-background:new 0 0 38 38;" xml:space="preserve">
<style type="text/css">
	.st0{opacity:0.3;}
	.st1{fill:none;}
	.st2{fill:#333132;}
</style>
<title>Shroom_Icon</title>
<g class="st0">
	<path class="st1" d="M7.1,17.4C6,17.8,5.2,18.7,5,19.8c-0.1,0.6,0.2,1.3,0.7,1.7c0.1,0,0.1,0.1,0.1,0.2c0.5,0.2,1,0.4,1.6,0.6
		c1.5-2,2.6-3.6,2.8-4.3C9.2,17.2,8.1,17,7.1,17.4z"/>
	<path class="st1" d="M14.5,7.4c0.9-1.2,2.2-2.6,4.4-3.8c-1.4-2-4.4-3.1-8.4-1.4c-3.8,1.6-5,4.3-4.9,6.4C8.2,7.1,11.3,6.7,14.5,7.4z
		"/>
	<path class="st1" d="M16.7,29c0.5,0,1.2,0.4,1.8,0c0.9-0.7,1.4-1.8,1.4-2.9s-0.6-2.1-1.5-2.7c-0.6,0.5-1.7,2.1-2.9,4.3
		c0.4,0.5,0.7,1.3,1.1,1.3H16.7z"/>
	<path class="st1" d="M20.3,11.6c-2-1.4-3.8-2.2-5.5-2.6c-0.1,0-0.3,0-0.4-0.1c-4.2-1-7.2,0.4-8.6,1.3c-2.7,1.7-4.3,4.6-3.9,7.2
		C2,18.4,3,19.3,3,20c0-0.1,0-0.3,0-0.4c1-1.6,1.7-3,3.2-3.5c1.6-0.6,3.6-0.3,4.8,0.9c0.1,0.1,0.3,0.3,0.3,0.4
		c0.3,2.1-6.3,9.7-9.7,13.5l7.7,5.2c2.2-4.7,6.6-13.8,8.7-14.3c0.2,0,0.3,0,0.5,0.1c1.6,0.8,2.6,2.3,2.7,4.1c0.1,1.7-0.7,3.3-2,4.2
		c-0.1,0.1-0.3,0.1-0.4,0.2c1,0.4,2,0.5,3,0.3c2.5-0.6,4.6-3.1,5.2-6.2C27.4,22.3,27.6,16.5,20.3,11.6z"/>
	<path class="st1" d="M23.3,3.5c-1.1,0.3-2.1,0.6-2.9,1c0,0,0,0.1-0.1,0.1c-0.1,0.1-0.2,0.1-0.3,0.1c-1.9,0.9-3.2,2.1-4.1,3.2
		c1.7,0.5,3.4,1.4,5.1,2.5c5.6,3.8,8.4,9.2,7.4,14.4c0,0.2-0.1,0.4-0.1,0.5l3.8-0.9c-1.6-4.1-4.6-12.1-3.7-13.7
		c0.1-0.1,0.2-0.3,0.4-0.3c1.4-0.6,2.8-0.3,4,0.7c1.1,0.9,2.2,2.4,1.2,3.8c0,0,0,0,0,0.1c1-0.4,1.4-0.9,1.8-1.5
		c1-1.8,0.9-4.6-0.7-6.8C33.9,5.2,30.6,1.6,23.3,3.5z"/>
	<path class="st1" d="M31.9,16c0.5,0,0.9-0.7,1-1.2c0.1-0.9-0.3-2-1-2.5c-0.7-0.6-1.5-0.7-2.4-0.5c0,0.6,0.3,2.1,0.9,4.1
		C31,16,31.4,16,31.9,16L31.9,16z"/>
	<path class="st2" d="M36.3,5.9C33.6,2.2,28.6,0.6,23,2.2c-1,0.2-1.9,0.5-2.8,0.9c-1.6-2.5-5.4-4.2-10.3-2.1S3.7,6.8,4.2,9.6
		c-2.6,2.1-4,5.2-3.5,8.1c0.3,1.6,1.4,4.4,5.7,5.8c-1.8,2.3-4,4.8-6.2,7.2C0,30.8,0,31,0,31.2c0,0.2,0.1,0.4,0.3,0.5l9.1,6.2
		C9.5,38,9.7,38,9.8,38H10c0.2-0.1,0.4-0.2,0.5-0.4c1.3-2.9,2.8-6,4.2-8.5c2.2,2.6,4.4,3.2,6,3.2c0.5,0,0.9,0,1.4-0.1
		c2.5-0.5,4.5-2.5,5.7-5.2l5.4-1.3c0.1,0,0.1,0,0.2-0.1c0.4-0.2,0.5-0.6,0.3-1c-1-2.5-2-5.5-2.8-7.5c0.1,0,0.3,0,0.4,0
		c2.3,0,4.6-0.9,5.8-2.9C38.5,11.8,38.2,8.5,36.3,5.9z M10.5,2.3c4-1.7,7-0.6,8.4,1.4c-2.2,1.1-3.6,2.5-4.4,3.8
		c-3.2-0.7-6.3-0.3-8.9,1.2C5.5,6.6,6.7,3.9,10.5,2.3z M5.8,21.6c0-0.1-0.1-0.1-0.1-0.2c-0.5-0.4-0.8-1-0.7-1.7
		c0.3-1.1,1.1-2,2.1-2.4c1-0.4,2.2-0.2,3,0.4C9.9,18.4,8.9,20,7.3,22C6.8,22,6.2,21.8,5.8,21.6z M15.5,27.7c1.2-2.2,2.3-3.8,2.9-4.3
		c0.9,0.6,1.5,1.6,1.5,2.7c0.1,1.1-0.4,2.2-1.4,2.9c-0.5,0.4-1.2,0.4-1.8,0c0,0-0.1,0-0.2-0.1C16.2,28.6,15.8,28.2,15.5,27.7z
		 M27,24.5c-0.6,3.1-2.7,5.7-5.2,6.2c-1,0.2-2,0.1-3-0.3c0.1-0.1,0.3-0.1,0.4-0.2c1.4-0.9,2.1-2.5,2-4.2c0-1.8-1.1-3.4-2.7-4.1
		c-0.2-0.1-0.3-0.1-0.5-0.1c-2.1,0.5-6.5,9.6-8.7,14.3L1.8,31c3.4-3.8,10.1-11.4,9.7-13.5c0-0.2-0.1-0.3-0.2-0.4
		c-1.3-1.2-2.9-1.5-4.5-0.9C5.2,16.8,4,18.1,4,19.7c0,0.1,0,0.3,0,0.4c-1-0.7-1.4-1.6-1.6-2.6C2,14.9,3.3,12,6,10.3
		C7.3,9.4,10.2,8,14.5,9c0,0,0.1,0,0.3,0c1.7,0,3.5,1.2,5.5,2.6C27.6,16.5,27.4,22.3,27,24.5z M30.5,16c-0.6-2-0.9-3.6-0.9-4.2
		c0.8-0.2,1.7-0.1,2.4,0.5c0.7,0.6,1.1,1.6,1,2.5c-0.1,0.5-0.5,1.1-1,1.1c0,0,0,0-0.1,0C31.4,16,31,16,30.5,16z M35.8,13.5
		C35.3,14.2,35,14.7,34,15c0,0,0,0,0-0.1c0-1.4-0.1-2.9-1.2-3.8c-1.1-1-2.7-1.3-4.1-0.7c-0.2,0.1-0.3,0.2-0.4,0.3
		c-0.9,1.6,2.1,9.6,3.7,13.7l-3.8,0.9c0-0.2,0.1-0.4,0.1-0.5c1-5.2-1.8-10.7-7.4-14.4c-1.7-1.1-3.4-2-5.1-2.5
		c0.8-1.1,2.1-2.2,4.1-3.2c0.1,0,0.2,0,0.3-0.1c0,0,0,0,0.1-0.1c0.9-0.4,1.8-0.7,2.9-1C30.6,1.6,33.9,5.2,35,6.7
		C36.6,8.9,36.8,11.7,35.8,13.5z"/>
</g>
</svg>
