<?xml version="1.0" encoding="utf-8"?>
<!-- Generator: Adobe Illustrator 20.1.0, SVG Export Plug-In . SVG Version: 6.00 Build 0)  -->
<svg version="1.1" id="Layer_1" xmlns="http://www.w3.org/2000/svg" xmlns:xlink="http://www.w3.org/1999/xlink" x="0px" y="0px"
	 viewBox="0 0 24 24" style="enable-background:new 0 0 24 24;" xml:space="preserve">
<style type="text/css">
	.st0{opacity:0.3;}
	.st1{fill:#333132;}
</style>
<title>Orange</title>
<desc>Created with Sketch.</desc>
<g id="Page-1" class="st0">
	<g id="_x33_20-Food-Calc_x2C_-pg3-Refine-Selection" transform="translate(-118.000000, -222.000000)">
		<g id="Icons" transform="translate(64.000000, 221.000000)">
			<path id="Orange" class="st1" d="M66,1.9L66,1.9c-6.1,0-11.1,5-11.1,11.1s5,11.1,11.1,11.1c6.1,0,11.1-5,11.1-11.1
				S72.1,1.9,66,1.9 M66,25c-6.6,0-12-5.4-12-12c0-6.6,5.4-12,12-12c6.6,0,12,5.4,12,12C78,19.6,72.6,25,66,25z M60.1,7.1
				c0.4-0.4,1.1-0.9,1.4-1l1.2,2.6c0,0.1,0.1,0.2,0.2,0.4c0.2,0.4,0.4,0.9,0.6,1.3c-0.5-0.2-0.9-0.4-1.3-0.6
				c-0.2-0.1-0.3-0.1-0.4-0.2l-2.6-1.2C59.2,8.2,59.7,7.4,60.1,7.1z M58.6,9.3l2.7,1.2c0.1,0,0.2,0.1,0.4,0.2c0.6,0.3,1.7,0.8,2.3,1
				c0,0,0.1,0,0.1,0c0.1,0,0.2,0,0.3-0.1c0.1-0.1,0.2-0.3,0.1-0.4c-0.2-0.6-0.7-1.7-1-2.4c-0.1-0.2-0.1-0.3-0.2-0.4l-1.2-2.7
				c-0.1-0.2-0.2-0.3-0.4-0.4c-0.1-0.1-0.2-0.1-0.4-0.1c-0.9,0-2.2,1.3-2.2,1.3c0,0-1.4,1.4-1.2,2.3C58.2,9,58.4,9.2,58.6,9.3z
				 M66,4.6c0.9,0,1.5,0.2,1.7,0.3l-1.1,2.7c0,0.1-0.1,0.2-0.1,0.4c-0.1,0.4-0.3,0.9-0.5,1.3c-0.2-0.5-0.4-1-0.5-1.3
				c-0.1-0.2-0.1-0.3-0.1-0.4l-1.1-2.7C64.5,4.8,65.1,4.6,66,4.6z M64.5,7.9c0,0.1,0.1,0.2,0.1,0.4c0.2,0.7,0.6,1.7,1,2.3
				c0.1,0.1,0.2,0.2,0.4,0.2c0.2,0,0.3-0.1,0.4-0.2c0.3-0.6,0.7-1.7,1-2.3c0.1-0.2,0.1-0.3,0.1-0.4l1.1-2.8c0.1-0.3,0.1-0.5-0.1-0.7
				c-0.5-0.7-1.9-0.7-2.5-0.7c-0.6,0-2.1,0.1-2.5,0.7c-0.2,0.2-0.2,0.5-0.1,0.7L64.5,7.9z M69.2,9.1c0.1-0.2,0.1-0.3,0.2-0.4
				l1.2-2.6c0.3,0.1,1.1,0.6,1.4,1c0.4,0.4,0.9,1.2,1,1.4l-2.6,1.2c-0.1,0-0.2,0.1-0.4,0.2c-0.4,0.2-0.8,0.4-1.3,0.6
				C68.8,10,69,9.5,69.2,9.1z M68.3,8.7c-0.3,0.6-0.8,1.7-1,2.4c0,0.2,0,0.3,0.1,0.4c0.1,0.1,0.2,0.1,0.3,0.1c0,0,0.1,0,0.1,0
				c0.6-0.2,1.7-0.7,2.3-1c0.2-0.1,0.3-0.1,0.4-0.2l2.7-1.2c0.1,0,0.3-0.1,0.4-0.3c0.4-0.9-1.1-2.5-1.2-2.5c0,0-1.3-1.3-2.2-1.3
				c-0.3,0-0.6,0.2-0.7,0.5l-1.2,2.7C68.5,8.4,68.4,8.6,68.3,8.7z M66,21.4c-0.9,0-1.5-0.2-1.7-0.3l1.1-2.7c0-0.1,0.1-0.2,0.1-0.4
				c0.1-0.4,0.3-0.9,0.5-1.3c0.2,0.5,0.4,1,0.5,1.3c0.1,0.2,0.1,0.3,0.1,0.4l1.1,2.7C67.5,21.2,66.9,21.4,66,21.4z M67.5,18.1
				c0-0.1-0.1-0.2-0.1-0.4c-0.2-0.7-0.6-1.7-1-2.3c-0.2-0.3-0.7-0.3-0.8,0c-0.3,0.6-0.7,1.7-1,2.3c-0.1,0.2-0.1,0.3-0.1,0.4
				l-1.1,2.8c-0.1,0.3-0.1,0.5,0.1,0.7c0.5,0.7,1.9,0.7,2.5,0.7c0.6,0,2.1-0.1,2.5-0.7c0.2-0.2,0.2-0.5,0.1-0.7L67.5,18.1z
				 M71.9,18.9c-0.4,0.4-1.1,0.9-1.4,1l-1.2-2.6c0-0.1-0.1-0.2-0.2-0.4c-0.2-0.4-0.4-0.9-0.6-1.3c0.5,0.2,0.9,0.4,1.3,0.6
				c0.2,0.1,0.3,0.1,0.4,0.2l2.6,1.2C72.8,17.8,72.3,18.6,71.9,18.9z M73.4,16.7l-2.7-1.2c-0.1,0-0.2-0.1-0.4-0.2
				c-0.6-0.3-1.7-0.8-2.3-1c-0.2,0-0.3,0-0.5,0.1c-0.1,0.1-0.2,0.3-0.1,0.4c0.2,0.6,0.7,1.7,1,2.4c0.1,0.2,0.1,0.3,0.2,0.4l1.2,2.7
				c0,0.1,0.1,0.3,0.4,0.4c0.1,0,0.2,0.1,0.4,0.1c0.9,0,2.2-1.3,2.2-1.3c0,0,1.4-1.4,1.2-2.3C73.8,17,73.6,16.8,73.4,16.7z M57.6,13
				c0-0.6,0.2-1.5,0.3-1.7l2.7,1c0.1,0,0.2,0.1,0.4,0.1c0.4,0.1,0.9,0.3,1.4,0.5c-0.5,0.2-1,0.4-1.4,0.5c-0.2,0.1-0.3,0.1-0.4,0.2
				l-2.7,1C57.8,14.4,57.6,13.5,57.6,13z M60.9,14.5c0.1,0,0.2-0.1,0.4-0.1c0.7-0.2,1.8-0.7,2.4-1c0.1-0.1,0.2-0.2,0.2-0.4
				c0-0.2-0.1-0.3-0.2-0.4c-0.6-0.3-1.7-0.7-2.4-1c-0.2-0.1-0.3-0.1-0.4-0.1l-2.8-1.1c-0.1,0-0.2-0.1-0.3-0.1c-0.1,0-0.2,0-0.2,0
				c-1,0.3-1,2.5-1,2.6c0,0.1,0,2.7,1.2,2.7c0.1,0,0.2,0,0.3-0.1L60.9,14.5z M74.1,14.7l-2.7-1c-0.1,0-0.2-0.1-0.4-0.2
				c-0.4-0.1-0.9-0.3-1.4-0.5c0.5-0.2,1-0.4,1.4-0.5c0.2-0.1,0.3-0.1,0.4-0.1l2.6-1c0.2,0.3,0.3,1.2,0.3,1.7
				C74.4,13.6,74.2,14.5,74.1,14.7z M74.1,10.3c-0.1,0-0.2,0-0.3,0.1l-2.8,1.1c-0.1,0-0.2,0.1-0.4,0.1c-0.7,0.2-1.8,0.7-2.4,1
				c-0.1,0.1-0.2,0.2-0.2,0.4c0,0.2,0.1,0.3,0.2,0.4c0.6,0.3,1.7,0.7,2.3,1c0.2,0.1,0.3,0.1,0.4,0.1l2.8,1.1c0.1,0,0.2,0.1,0.3,0.1
				c0.1,0,0.2,0,0.2,0c1-0.3,1-2.5,1-2.6C75.3,12.9,75.3,10.3,74.1,10.3z M62.8,16.9c-0.1,0.2-0.1,0.3-0.2,0.4l-1.2,2.6
				c-0.3-0.1-1.1-0.7-1.4-1c-0.4-0.4-0.9-1.2-1-1.4l2.6-1.2c0.1,0,0.2-0.1,0.4-0.2c0.4-0.2,0.8-0.4,1.3-0.6
				C63.2,16,63,16.5,62.8,16.9z M61.6,20.4v-0.5h0L61.6,20.4z M63.7,17.3c0.3-0.6,0.8-1.7,1-2.4c0-0.2,0-0.3-0.1-0.4
				c-0.1-0.1-0.3-0.2-0.5-0.1c-0.6,0.2-1.7,0.7-2.3,1c-0.2,0.1-0.3,0.1-0.4,0.2l-2.7,1.2c-0.1,0-0.3,0.1-0.4,0.3
				c-0.5,0.9,1.1,2.5,1.2,2.5c0,0,1.3,1.3,2.2,1.3c0.3,0,0.6-0.2,0.7-0.5l1.2-2.7C63.5,17.6,63.6,17.4,63.7,17.3z"/>
		</g>
	</g>
</g>
</svg>
